<svg id="visual" viewBox="0 0 900 600" width="900" height="600" xmlns="http://www.w3.org/2000/svg" xmlns:xlink="http://www.w3.org/1999/xlink" version="1.1"><rect x="0" y="0" width="900" height="600" fill="#ffffff"></rect><path d="M0 411L21.5 406.2C43 401.3 86 391.7 128.8 386.3C171.7 381 214.3 380 257.2 386.2C300 392.3 343 405.7 385.8 412.3C428.7 419 471.3 419 514.2 422.8C557 426.7 600 434.3 642.8 424.5C685.7 414.7 728.3 387.3 771.2 374.8C814 362.3 857 364.7 878.5 365.8L900 367L900 601L878.5 601C857 601 814 601 771.2 601C728.3 601 685.7 601 642.8 601C600 601 557 601 514.2 601C471.3 601 428.7 601 385.8 601C343 601 300 601 257.2 601C214.3 601 171.7 601 128.8 601C86 601 43 601 21.5 601L0 601Z" fill="#afc6d8"></path><path d="M0 479L21.5 473.3C43 467.7 86 456.3 128.8 447.8C171.7 439.3 214.3 433.7 257.2 433.2C300 432.7 343 437.3 385.8 444.5C428.7 451.7 471.3 461.3 514.2 466C557 470.7 600 470.3 642.8 468.7C685.7 467 728.3 464 771.2 463C814 462 857 463 878.5 463.5L900 464L900 601L878.5 601C857 601 814 601 771.2 601C728.3 601 685.7 601 642.8 601C600 601 557 601 514.2 601C471.3 601 428.7 601 385.8 601C343 601 300 601 257.2 601C214.3 601 171.7 601 128.8 601C86 601 43 601 21.5 601L0 601Z" fill="#99b1c2"></path><path d="M0 493L21.5 486.8C43 480.7 86 468.3 128.8 461.2C171.7 454 214.3 452 257.2 454C300 456 343 462 385.8 466.7C428.7 471.3 471.3 474.7 514.2 480.7C557 486.7 600 495.3 642.8 494C685.7 492.7 728.3 481.3 771.2 470.8C814 460.3 857 450.7 878.5 445.8L900 441L900 601L878.5 601C857 601 814 601 771.2 601C728.3 601 685.7 601 642.8 601C600 601 557 601 514.2 601C471.3 601 428.7 601 385.8 601C343 601 300 601 257.2 601C214.3 601 171.7 601 128.8 601C86 601 43 601 21.5 601L0 601Z" fill="#839cad"></path><path d="M0 509L21.5 512.2C43 515.3 86 521.7 128.8 517.3C171.7 513 214.3 498 257.2 497.5C300 497 343 511 385.8 511.8C428.7 512.7 471.3 500.3 514.2 494.2C557 488 600 488 642.8 496.8C685.7 505.7 728.3 523.3 771.2 526.3C814 529.3 857 517.7 878.5 511.8L900 506L900 601L878.5 601C857 601 814 601 771.2 601C728.3 601 685.7 601 642.8 601C600 601 557 601 514.2 601C471.3 601 428.7 601 385.8 601C343 601 300 601 257.2 601C214.3 601 171.7 601 128.8 601C86 601 43 601 21.5 601L0 601Z" fill="#6e8898"></path><path d="M0 527L21.5 532.7C43 538.3 86 549.7 128.8 556.3C171.7 563 214.3 565 257.2 560.3C300 555.7 343 544.3 385.8 539.5C428.7 534.7 471.3 536.3 514.2 539.7C557 543 600 548 642.8 549.3C685.7 550.7 728.3 548.3 771.2 543.7C814 539 857 532 878.5 528.5L900 525L900 601L878.5 601C857 601 814 601 771.2 601C728.3 601 685.7 601 642.8 601C600 601 557 601 514.2 601C471.3 601 428.7 601 385.8 601C343 601 300 601 257.2 601C214.3 601 171.7 601 128.8 601C86 601 43 601 21.5 601L0 601Z" fill="#5a7483"></path></svg>