<svg id="visual" viewBox="0 0 900 600" width="900" height="600" xmlns="http://www.w3.org/2000/svg" xmlns:xlink="http://www.w3.org/1999/xlink" version="1.1"><rect x="0" y="0" width="900" height="600" fill="#fff"></rect><defs><linearGradient id="grad1_0" x1="33.3%" y1="100%" x2="100%" y2="0%"><stop offset="20%" stop-color="#ffffff" stop-opacity="1"></stop><stop offset="80%" stop-color="#ffffff" stop-opacity="1"></stop></linearGradient></defs><defs><linearGradient id="grad2_0" x1="0%" y1="100%" x2="66.7%" y2="0%"><stop offset="20%" stop-color="#ffffff" stop-opacity="1"></stop><stop offset="80%" stop-color="#ffffff" stop-opacity="1"></stop></linearGradient></defs><g transform="translate(900, 600)"><path d="M-378.6 0C-369.7 -67.9 -360.7 -135.8 -327.9 -189.3C-295 -242.8 -238.1 -281.8 -179.5 -310.9C-120.9 -340 -60.4 -359.3 0 -378.6L0 0Z" fill="#afc6d8"></path></g><g transform="translate(0, 0)"><path d="M378.6 0C373.1 73.9 367.7 147.8 327.9 189.3C288 230.7 213.9 239.7 153.5 265.9C93.1 292 46.6 335.3 0 378.6L0 0Z" fill="#afc6d8"></path></g></svg>